<svg height="464pt" viewBox="0 -44 464 464" width="464pt" xmlns="http://www.w3.org/2000/svg"><path d="m0 0h112c79.527344 0 144 64.472656 144 144h-112c-79.527344 0-144-64.472656-144-144zm0 0" fill="#406325"/><path d="m288 184c-2.121094 0-4.15625-.84375-5.65625-2.34375l-32-32c-.265625-.269531-.511719-.554688-.742188-.855469-.699218-.921875-71.066406-92.800781-177.601562-92.800781-4.417969 0-8-3.582031-8-8s3.582031-8 8-8c111.816406 0 183.695312 90.449219 190.039062 98.726562l31.617188 31.617188c2.285156 2.289062 2.972656 5.730469 1.734375 8.71875s-4.15625 4.9375-7.390625 4.9375zm0 0" fill="#24420e"/><path d="m320 336h-112c0-79.527344 64.472656-144 144-144h112c0 79.527344-64.472656 144-144 144zm0 0" fill="#67923d"/><path d="m176 376c-3.234375 0-6.152344-1.949219-7.390625-4.9375s-.550781-6.429688 1.734375-8.71875l31.617188-31.617188c6.34375-8.277343 78.222656-98.726562 190.039062-98.726562 4.417969 0 8 3.582031 8 8s-3.582031 8-8 8c-106.535156 0-176.902344 91.878906-177.601562 92.800781-.230469.296875-.476563.578125-.742188.847657l-32 32c-1.5 1.503906-3.535156 2.347656-5.65625 2.351562zm0 0" fill="#24420e"/></svg>