<svg height="512pt" viewBox="0 -61 512.001 512" width="512pt" xmlns="http://www.w3.org/2000/svg"><path d="m409.933594 379.992188h51.601562c18.132813 0 32.828125-14.710938 32.828125-32.855469v-.148438c0-18.144531-14.699219-32.855469-32.828125-32.855469h-113.429687l-2.628907-.839843c-.34375-7.132813-3.238281-14.164063-8.679687-19.613281l-69.007813-67.960938c-3.269531-3.21875-7.425781-5.382812-11.9375-6.207031l-80.710937-14.792969c-24.378906-4.46875-46.835937 34.683594-46.835937 34.683594h-63.296876v98.84375h27.367188c19.839844 0 35.925781 4.242187 35.925781-15.617188 0 0 35.292969 57.363282 84.511719 57.363282h107.242188" fill="#f5c2a8"/><path d="m10 239.402344h55.007812v98.847656h-55.007812zm0 0" fill="#2da7df"/><path d="m366.09375 369.992188h-.011719c-5.523437 0-9.992187 4.476562-9.992187 10 0 5.523437 4.480468 10 10.003906 10 5.519531 0 10-4.476563 10-10 0-5.523438-4.476562-10-10-10zm0 0"/><path d="m461.539062 304.132812h-107.460937c-1.816406-6.578124-5.320313-12.628906-10.265625-17.578124l-69.007812-67.960938c-4.710938-4.640625-10.644532-7.726562-17.148438-8.917969l-80.714844-14.792969c-25.304687-4.640624-46.296875 22.542969-54.195312 34.519532h-112.746094c-5.523438 0-10 4.476562-10 10v98.847656c0 5.523438 4.476562 10 10 10 0 0 88.214844.097656 91.027344.195312 11.230468.386719 21.859375.753907 29.476562-5.820312 14.964844 18.398438 44.527344 47.367188 82.308594 47.367188h107.246094c5.523437 0 10-4.476563 10-10 0-5.523438-4.476563-10-10-10h-107.246094c-42.957031 0-75.671875-52.085938-75.992188-52.601563-2.34375-3.8125-6.929687-5.601563-11.242187-4.382813-4.304687 1.21875-7.273437 5.148438-7.273437 9.621094 0 3.277344-.609376 4.601563-.820313 4.808594-1.5625 1.507812-10.800781 1.191406-15.765625 1.019531-2.980469-.101562-26.707031-.210937-26.707031-.210937v-78.84375h53.292969c3.574218 0 6.878906-1.917969 8.667968-5.015625 6.214844-10.769531 23.289063-32.226563 36.363282-29.835938l80.714843 14.792969c2.546875.46875 4.875 1.679688 6.722657 3.5l68.949218 67.902344c3.480469 3.484375 5.53125 8.113281 5.769532 13.03125.007812.15625.019531.316406.035156.476562-.007813.160156-.011719.324219-.011719.488282 0 5.285156-2.058594 10.257812-5.808594 14.007812l-.074219.078125c-3.738281 3.734375-8.699218 5.792969-13.976562 5.792969h-.007812c-5.277344-.003906-10.242188-2.0625-13.976563-5.796875l-58.617187-58.667969c-3.90625-3.910156-10.238282-3.910156-14.144532-.007812-3.90625 3.902343-3.910156 10.234374-.007812 14.144531l58.621094 58.667969c7.511718 7.515624 17.5 11.65625 28.121093 11.660156h.011719c10.617188 0 20.601562-4.136719 28.132812-11.664063l.082032-.082031c5.242187-5.25 8.839844-11.707031 10.535156-18.742188h107.132812c12.585938 0 22.824219 10.253907 22.824219 22.855469v.148438c0 12.601562-10.238281 22.855469-22.824219 22.855469h-51.605468c-5.523438 0-10 4.476562-10 10 0 5.523437 4.476562 10 10 10h51.605468c23.613282 0 42.824219-19.226563 42.824219-42.855469v-.148438c0-23.628906-19.210937-42.855469-42.824219-42.855469zm-441.539062-54.730468h35.007812v78.84375h-35.007812zm0 0"/><path d="m502 123.539062c0 4.199219-.234375 8.328126-.675781 12.410157-.035157.300781-.066407.617187-.101563.917969-3 25.738281-14.605468 48.832031-31.863281 66.359374-1.335937 1.359376-2.71875 2.6875-4.125 3.988282-19.636719 18.039062-45.652344 29.25-74.285156 29.832031-.800781.023437-1.589844.035156-2.394531.035156-.183594 0-.359376 0-.542969-.011719-.128907 0-.269531 0-.398438-.015624-34.183593-.253907-64.777343-15.675782-85.390625-39.851563-.652344-.769531-1.304687-1.546875-1.929687-2.328125-3.3125-4.09375-6.34375-8.429688-9.066407-12.976562-10.234374-17.050782-16.117187-37.015626-16.117187-58.355469 0-34.914063 15.734375-66.125 40.496094-86.957031 8.238281-6.929688 17.488281-12.710938 27.480469-17.09375 1.1875-.523438 2.371093-1.023438 3.578124-1.5 12.957032-5.152344 27.097657-7.988282 41.890626-7.988282 23.160156 0 44.703124 6.953125 62.65625 18.875 1.429687.953125 2.832031 1.929688 4.214843 2.953125 28.226563 20.628907 46.574219 54.027344 46.574219 91.707031zm0 0" fill="#8ed8f8"/><g fill="#2da7df"><path d="m455.429688 31.828125c-.28125 12.097656-3.429688 23.320313-13.121094 28.960937-24.238282 14.140626-21.671875 50.925782-34.207032 65.75-12.539062 14.851563-37.972656-26.234374-36.40625-48.84375 1.546876-22.617187-40.378906-21.140624-44.550781-24.675781-1.265625-1.070312-6.773437-7.921875-11.535156-16.433593 8.238281-6.929688 17.488281-12.710938 27.480469-17.09375 1.183594-.523438 2.371094-1.023438 3.578125-1.5 12.957031-5.152344 27.097656-7.992188 41.890625-7.992188 23.15625 0 44.699218 6.957031 62.652344 18.875 1.429687.953125 2.835937 1.929688 4.21875 2.953125zm0 0"/><path d="m390.949219 237.042969c-.800781.023437-1.589844.035156-2.394531.035156-.183594 0-.359376 0-.542969-.011719-.128907 0-.269531 0-.398438-.011718-34.183593-.253907-64.777343-15.675782-85.390625-39.851563-.652344-.769531-1.304687-1.546875-1.929687-2.328125-3.3125-4.09375-6.34375-8.429688-9.066407-12.976562 15.234376-17.839844 34.09375-38.066407 43.53125-27.433594 20.066407 22.59375 43.132813 38.574218 52.320313 38.144531 2.734375-.128906 3.742187 24.898437 3.871094 44.433594zm0 0"/><path d="m463.71875 206.632812c-15.863281-6.34375-26.011719-19.203124-26.011719-34.015624 0-21.121094 22.460938-38.261719 50.152344-38.261719 3.710937 0 7.035156.308593 10.210937.890625"/></g><path d="m350.132812 90.183594c0-25.058594-20.296874-45.375-45.339843-45.375-17.53125 0-32.726563 9.96875-40.269531 24.539062-7.40625-14.984375-22.824219-25.292968-40.65625-25.292968-25.039063 0-45.339844 20.316406-45.339844 45.375 0 64.210937 85.480468 104.332031 85.480468 104.332031s50.25-23.1875 73.984376-62.589844c7.335937-12.179687 12.140624-25.910156 12.140624-40.988281zm0 0" fill="#f37779"/><path d="m461.378906 23.792969c-1.417968-1.050781-2.929687-2.109375-4.636718-3.25-20.242188-13.4375-43.820313-20.542969-68.183594-20.542969-15.738282 0-31.074219 2.925781-45.5625 8.6875-1.273438.503906-2.5625 1.042969-3.925782 1.644531-10.804687 4.742188-20.867187 11-29.898437 18.601563-2.242187 1.886718-4.4375 3.871094-6.550781 5.917968-14.609375.566407-28.121094 6.816407-37.925782 17.15625-10.304687-11.324218-24.953124-17.953124-40.828124-17.953124-30.511719 0-55.339844 24.84375-55.339844 55.375 0 69.761718 87.507812 111.636718 91.234375 113.386718 1.34375.628906 2.796875.945313 4.246093.945313 1.429688 0 2.859376-.304688 4.191407-.917969.789062-.363281 8.054687-3.765625 18.191406-9.941406 1.925781 2.835937 3.972656 5.597656 6.117187 8.246094.675782.84375 1.382813 1.6875 2.105469 2.542968 23.21875 27.230469 56.996094 43.027344 92.703125 43.363282.136719.003906 3.027344.011718 3.835938-.011719 30.007812-.609375 58.71875-12.136719 80.878906-32.492188 1.671875-1.550781 3.132812-2.960937 4.457031-4.308593 19.203125-19.503907 31.515625-45.152344 34.667969-72.234376 0 0 .84375-10.015624.84375-14.46875 0-39.289062-18.941406-76.589843-50.621094-99.746093zm30.621094 99.746093c0 .3125-.003906.621094-.003906.933594-1.355469-.078125-2.730469-.117187-4.136719-.117187-33.167969 0-60.152344 21.652343-60.152344 48.261719 0 14.292968 7.195313 27.332031 19.445313 36.253906-13.773438 9.484375-29.664063 15.488281-46.347656 17.472656-.71875-35.421875-3.507813-38.050781-6.445313-40.828125-2.097656-1.976563-4.8125-3.003906-7.644531-2.898437-5.097656-.375-24.761719-12.589844-44.480469-34.792969-.644531-.726563-1.328125-1.394531-2.042969-2 2.257813-3.050781 4.394532-6.214844 6.367188-9.488281 9.007812-14.957032 13.574218-30.480469 13.574218-46.148438 0-7.539062-1.515624-14.726562-4.25-21.285156 3.78125 2.199218 6.0625 4.828125 5.835938 8.101562-1.378906 19.929688 14.492188 53.816406 32.617188 61.164063 2.53125 1.027343 5.070312 1.53125 7.527343 1.53125 5.257813 0 10.160157-2.300781 13.875-6.699219 6.296875-7.449219 9.195313-17.6875 12.269531-28.527344 3.960938-13.996094 8.0625-28.464844 19.332032-35.042968 7.195312-4.1875 12.203125-10.246094 15.101562-18.324219 18.738282 19.199219 29.558594 45.25 29.558594 72.433593zm-144.871094-94.898437c1.136719-.503906 2.1875-.945313 3.234375-1.355469 12.148438-4.832031 25-7.285156 38.191407-7.285156 20.230468 0 39.804687 5.839844 56.628906 16.878906-1 9.9375-4.679688 13.386719-7.914063 15.269532-18.246093 10.644531-23.933593 30.730468-28.507812 46.871093-2.3125 8.164063-4.503907 15.902344-7.664063 20.257813-2.316406-1.355469-7-5.777344-11.816406-14.613282-5.082031-9.332031-8.066406-19.644531-7.609375-26.285156.546875-7.960937-1.90625-19.164062-16.683594-27.328125-8.113281-4.484375-17.574219-6.765625-24.480469-8.429687-1.878906-.453125-4.375-1.054688-5.492187-1.421875-.824219-.546875-1.65625-.960938-2.523437-1.390625-.800782-.398438-1.746094-.867188-2.730469-1.46875 5.453125-3.773438 11.265625-7.023438 17.367187-9.699219zm-83.085937 153.917969c-16.472657-8.769532-75.515625-43.660156-75.515625-93.125 0-19.507813 15.855468-35.378906 35.339844-35.378906 13.535156 0 25.679687 7.558593 31.691406 19.726562 1.667968 3.378906 5.097656 5.535156 8.871094 5.566406 3.773437.039063 7.242187-2.050781 8.972656-5.398437 6.113281-11.804688 18.140625-19.136719 31.390625-19.136719 19.484375 0 35.339843 15.867188 35.339843 35.375 0 11.980469-3.605468 24.03125-10.707031 35.828125-17.96875 29.824219-53.238281 50.171875-65.382812 56.542969zm45.808593 8.179687c-.597656-.707031-1.195312-1.421875-1.785156-2.152343-1.515625-1.878907-2.976562-3.820313-4.363281-5.804688 1.539063-1.738281 2.988281-3.335938 4.355469-4.804688 5.933594-4.613281 12-9.835937 17.804687-15.636718.8125-.414063 1.421875-.625 1.867188-.730469 15.265625 17.074219 36.257812 34.871094 51.664062 39.722656.554688 4.648438 1.132813 13.003907 1.410157 25.441407-27.410157-2.035157-52.972657-14.945313-70.953126-36.035157zm153.246094 4.582031c-9.601562-5.214843-15.390625-13.609374-15.390625-22.703124 0-15.320313 18.386719-28.261719 40.152344-28.261719.691406 0 1.367187.015625 2.03125.039062-3.910156 19.019531-13.234375 36.8125-26.792969 50.925781zm0 0"/></svg>