<?xml version="1.0" encoding="iso-8859-1"?>
<!-- Generator: Adobe Illustrator 19.0.0, SVG Export Plug-In . SVG Version: 6.00 Build 0)  -->
<svg version="1.1" id="Layer_1" xmlns="http://www.w3.org/2000/svg" xmlns:xlink="http://www.w3.org/1999/xlink" x="0px" y="0px"
	 viewBox="0 0 511.968 511.968" style="enable-background:new 0 0 511.968 511.968;" xml:space="preserve">
<path style="fill:#5E9CEA;" d="M401.96,258.648c0,79.151-64.168,143.318-143.319,143.318s-143.319-64.167-143.319-143.318
	c0-79.167,64.168-143.335,143.319-143.335S401.96,179.481,401.96,258.648z"/>
<g>
	<polygon style="fill:#9ED36A;" points="365.462,169.482 337.963,146.983 299.965,126.484 251.469,159.982 238.469,175.981 
		269.217,187.48 305.965,197.98 286.966,210.479 238.469,203.979 212.971,216.979 205.471,245.32 215.471,281.474 253.468,287.974 
		273.967,306.972 280.467,356.97 295.465,375.968 328.963,350.47 345.963,317.472 364.462,255.976 364.462,241.477 376.462,221.978 
		379.462,200.48 	"/>
	<path style="fill:#9ED36A;" d="M151.225,301.473c-0.75-0.5-25.749-39.997-25.749-39.997v25.498l21.999,53.996l6.75-11.748
		C154.225,329.222,151.975,301.973,151.225,301.473z"/>
</g>
<path d="M255.984,107.032c-82.261,0-148.944,66.684-148.944,148.944c0,82.275,66.683,148.959,148.944,148.959
	c82.276,0,148.96-66.684,148.96-148.959C404.944,173.715,338.26,107.032,255.984,107.032z M147.913,322.379
	c-0.094,0.297-0.219,0.625-0.375,0.938c-6.594-10.563-11.562-22.015-14.796-34.014c1.938,2.578,3.781,5.078,5.5,7.578
	C149.1,312.66,148.631,319.972,147.913,322.379z M255.984,383.609c-34.092,0-66.137-13.281-90.245-37.389
	c-1.703-1.703-3.343-3.453-4.937-5.234c3.421-3.593,6.156-7.749,7.578-12.592c4.421-15.016-4.266-31.545-12.562-43.607
	c-4.922-7.172-10.578-14.093-15.64-21.154c-1.984-2.766-6.39-9.656-11.468-17.062c2.203-30.545,15.155-58.965,37.029-80.823
	c24.108-24.108,56.153-37.388,90.245-37.388c7.984,0,15.843,0.734,23.515,2.156c-0.578,0.234-1.141,0.453-1.719,0.688
	c-18.483,7.328-37.592,14.89-51.122,32.732c-6.968,9.171-7.5,19.046-1.406,25.764c2.031,2.234,4.578,3.797,7.593,4.656
	c-7.546,2.281-16.358,6.656-23.811,14.375c-10.968,11.405-16.171,26.951-15.452,46.216c0.953,25.279,17.702,41.811,42.685,42.092
	c1.391,0.016,2.766,0.016,4.156,0.016h0.609c17.077,0,20.483,1.421,22.718,9.498c2.047,7.406,2.641,15.203,3.266,23.452
	c0.625,8.171,1.28,16.608,3.405,25.187c4.094,16.514,12.422,22.217,19.624,23.842C279.092,382.047,267.655,383.609,255.984,383.609z
	 M381.867,234.883c1.156,6.906,1.734,13.953,1.734,21.093c0,34.092-13.265,66.137-37.372,90.244
	c-4.922,4.922-10.172,9.375-15.703,13.375c1.641-1.891,3.469-3.766,5.406-5.75c4.594-4.719,9.813-10.047,13.499-16.796
	c4.25-7.78,5.797-15.968,7.155-23.202c1.219-6.469,2.375-12.593,5.25-17.576c0.438-0.75,0.953-1.641,1.516-2.609
	c18.046-30.904,21.702-41.576,17.077-49.638c-1.077-1.891-2.593-3.406-4.374-4.468C378.368,238.43,380.336,236.852,381.867,234.883z
	 M365.149,220.025c-2.609-0.344-6.172-1.297-9.39-2.156c-5.391-1.438-10.952-2.938-16.093-2.938c-7.984,0-12.328,3.625-14.563,6.671
	c-3.671,5-3.874,11.921-0.547,18.499c4.25,8.39,15.141,17.312,33.357,18.921c-3.202,6.781-8.405,16.029-12.982,23.889
	c-0.578,1-1.109,1.906-1.563,2.688c-4.703,8.141-6.313,16.718-7.75,24.295c-1.172,6.234-2.266,12.109-4.906,16.906
	c-2.281,4.187-6.063,8.046-10.046,12.139c-2.172,2.234-4.422,4.531-6.562,7.031c-6.719,7.797-11.813,12.313-18,12.313
	c-0.391,0-0.813-0.016-1.25-0.047c-0.016,0-2.016-1.281-3.733-8.188c-1.688-6.844-2.25-14.046-2.828-21.686
	c-0.688-8.891-1.391-18.109-3.984-27.499c-6.952-25.14-28.811-25.14-43.278-25.14h-0.609c-1.297,0-2.609,0-3.906-0.016
	c-13.421-0.156-21.092-7.812-21.608-21.561c-0.5-13.249,2.703-23.545,9.5-30.607c7.781-8.093,18.327-9.906,21.202-10l0.969,0.172
	c18.484,3.297,24.483,5,26.249,5.828c5.438,2.984,11.249,4.5,17.28,4.5c10.077,0,20.358-4.578,26.17-11.687
	c3.688-4.5,5.188-9.609,4.234-14.39c-1.625-8.125-9.78-13.077-31.17-18.937c-12.64-3.453-27.248-6.296-35.514-6.89
	c-0.469-0.031-0.953-0.047-1.438-0.047c-1.687,0-3.39,0.203-5.078,0.469c9.89-10.25,23.749-15.749,38.326-21.53
	c6.515-2.578,13.249-5.25,19.765-8.406c1.484-0.734,2.656-1.641,3.609-2.781c13.671,6.25,26.264,14.952,37.217,25.905
	c12.389,12.39,21.904,26.874,28.248,42.654C370.243,211.776,366.743,215.994,365.149,220.025z M256.859,193.902
	c10.641,1.437,26.249,5.187,36.153,8.515c-0.906,0.188-1.89,0.297-2.921,0.297c-2.391,0-4.766-0.641-7.03-1.875
	C279.155,198.683,271.811,196.714,256.859,193.902z"/>
<path d="M164.677,39.802c28.905-12.218,59.621-18.421,91.307-18.421s62.402,6.203,91.308,18.421
	c27.936,11.827,53.027,28.732,74.588,50.293c5.313,5.328,10.344,10.875,15.109,16.608h-53.044c-5.89,0-10.655,4.781-10.655,10.671
	s4.766,10.656,10.655,10.656h74.386c0.734,0,1.453-0.063,2.156-0.203c0.125-0.031,0.25-0.078,0.391-0.109
	c0.203-0.047,0.422-0.094,0.625-0.156c0.047-0.016,0.078-0.031,0.125-0.047c3.891-1.266,6.797-4.703,7.297-8.89
	c0.047-0.422,0.078-0.828,0.078-1.25V42.708c0-5.89-4.781-10.671-10.672-10.671s-10.655,4.781-10.655,10.671v43.701
	C400.788,33.443,332.292,0.054,255.984,0.054C115.024,0.054,0.625,115.156,0,255.976c0,5.891,4.781,10.671,10.671,10.671
	s10.718-4.78,10.718-10.671c0-31.67,6.203-62.402,18.421-91.307c11.812-27.936,28.732-53.028,50.294-74.574
	C111.649,68.534,136.741,51.629,164.677,39.802z"/>
<path d="M501.313,245.32c-5.891,0-10.719,4.765-10.719,10.656c0,31.686-6.203,62.402-18.436,91.322
	c-11.813,27.92-28.732,53.013-50.279,74.574c-21.561,21.545-46.652,38.466-74.572,50.277
	c-28.921,12.235-59.637,18.438-91.323,18.438c-31.67,0-62.402-6.202-91.307-18.437c-27.936-11.812-53.028-28.732-74.573-50.277
	c-5.328-5.328-10.359-10.875-15.108-16.625h53.028c5.89,0,10.671-4.765,10.671-10.655c0-5.89-4.781-10.671-10.671-10.671H53.637
	c-0.734,0-1.453,0.078-2.14,0.219c-0.141,0.031-0.266,0.063-0.391,0.094c-0.219,0.063-0.438,0.109-0.641,0.172
	c-0.031,0.016-0.078,0.031-0.109,0.047c-3.906,1.25-6.812,4.703-7.296,8.891c-0.047,0.406-0.078,0.827-0.078,1.249v74.667
	c0,5.891,4.765,10.656,10.655,10.656c5.891,0,10.671-4.766,10.671-10.656v-43.699c46.888,52.963,115.384,86.352,191.676,86.352
	c140.976,0,255.375-115.118,255.984-255.938C511.968,250.086,507.204,245.32,501.313,245.32z"/>
<g>
</g>
<g>
</g>
<g>
</g>
<g>
</g>
<g>
</g>
<g>
</g>
<g>
</g>
<g>
</g>
<g>
</g>
<g>
</g>
<g>
</g>
<g>
</g>
<g>
</g>
<g>
</g>
<g>
</g>
</svg>
